<svg width="37" height="32" viewBox="0 0 37 32" fill="none" xmlns="http://www.w3.org/2000/svg">
<g opacity="0.6">
<path d="M9.48152 18.252C9.48152 17.5562 10.0456 16.9922 10.7414 16.9922H17.5649C18.2607 16.9922 18.8248 17.5562 18.8248 18.252C18.8248 18.9478 18.2607 19.5118 17.5649 19.5118H10.7414C10.0456 19.5118 9.48152 18.9478 9.48152 18.252Z" fill="#E8EDEF"/>
<path d="M10.7414 10.135C10.0456 10.135 9.48152 10.6991 9.48152 11.3949C9.48152 12.0907 10.0456 12.6547 10.7414 12.6547H26.7726C27.4684 12.6547 28.0325 12.0907 28.0325 11.3949C28.0325 10.6991 27.4684 10.135 26.7726 10.135H10.7414Z" fill="#E8EDEF"/>
<path fill-rule="evenodd" clip-rule="evenodd" d="M22.2353 28.1547L19.6531 30.9266C19.1959 31.4173 18.4196 31.4212 17.9575 30.935L15.3233 28.1632C15.2818 28.1195 15.2446 28.0742 15.2115 28.0275C12.3422 28.0275 9.89811 28.0252 8.70455 27.7394C4.86937 26.8208 1.87493 23.8264 0.956366 19.9912C0.668217 18.7881 0.668215 17.3305 0.668213 14.4152C0.66821 11.5 0.668209 10.0424 0.956357 8.83929C1.87491 5.0041 4.86935 2.00966 8.70455 1.0911C9.90763 0.802948 11.3653 0.802948 14.2805 0.802948H23.2333C26.1486 0.802948 27.6062 0.802948 28.8093 1.0911C32.6444 2.00965 35.6389 5.00409 36.5575 8.83928C36.8456 10.0424 36.8456 11.5 36.8456 14.4152C36.8456 17.3304 36.8456 18.7881 36.5575 19.9912C35.6389 23.8264 32.6445 26.8208 28.8093 27.7394C27.6208 28.024 25.184 28.0275 22.3391 28.0275C22.3082 28.0712 22.2736 28.1137 22.2353 28.1547ZM17.0642 26.6154L18.7929 28.4344L20.4828 26.6205L21.136 25.6994L22.3391 25.6994C25.3118 25.6994 27.412 25.6801 28.267 25.4753C31.2499 24.7609 33.5789 22.4318 34.2934 19.4489C34.5014 18.5806 34.5175 17.4646 34.5175 14.4152C34.5175 11.3659 34.5013 10.2499 34.2934 9.38155C33.5789 6.39862 31.2499 4.06962 28.267 3.35518C27.3987 3.14721 26.2827 3.13107 23.2333 3.13107H14.2805C11.2311 3.13107 10.1152 3.14721 9.24681 3.35518C6.26389 4.06962 3.93488 6.39863 3.22044 9.38156C3.01247 10.2499 2.99633 11.3659 2.99633 14.4152C2.99634 17.4646 3.01248 18.5806 3.22045 19.4489C3.93489 22.4319 6.2639 24.7609 9.24682 25.4753C10.1065 25.6812 12.2122 25.6994 15.2115 25.6994L16.4142 25.6994L17.0642 26.6154Z" fill="#E8EDEF"/>
</g>
</svg>
