<svg width="81" height="45" viewBox="0 0 81 45" fill="none" xmlns="http://www.w3.org/2000/svg">
<path fill-rule="evenodd" clip-rule="evenodd" d="M40.5215 3.00551C29.8967 3.00551 21.2837 11.6186 21.2837 22.2433C21.2837 32.8681 29.8967 41.4812 40.5215 41.4812C47.0168 41.4812 52.7603 38.2622 56.2437 33.3325L56.191 33.2516L56.3908 33.1213C58.5158 30.0272 59.7593 26.2805 59.7593 22.2433C59.7593 18.0978 58.4481 14.2585 56.2177 11.1176L56.204 11.109L56.2075 11.1033C52.7207 6.20233 46.9944 3.00551 40.5215 3.00551ZM40.5215 44.2294C47.8492 44.2294 54.3395 40.6447 58.3347 35.1333C65.8797 30.1741 73.4925 24.3986 78.0114 20.9703L78.0191 20.9645C78.9658 20.2462 79.7765 19.6312 80.4219 19.1486L78.7762 16.9476C78.1127 17.4436 77.2855 18.0711 76.3237 18.8007C72.6681 21.5738 67.0679 25.822 61.1254 29.9329C62.0191 27.5394 62.5076 24.9484 62.5076 22.2433C62.5076 19.3991 61.9675 16.6809 60.9843 14.1859C62.7643 15.356 64.4684 16.498 66.0289 17.5438L66.0337 17.547C66.8349 18.0839 67.5982 18.5955 68.3144 19.0724L69.8375 16.7848C69.1332 16.3158 68.3783 15.8099 67.5828 15.2768L67.5812 15.2757L67.5781 15.2737C64.7835 13.4007 61.4887 11.1926 58.1272 9.072C54.117 3.72026 47.7237 0.257248 40.5215 0.257248C33.429 0.257248 27.121 3.61557 23.1007 8.82877C15.3641 13.8716 7.46927 19.8611 2.83228 23.379C1.88227 24.0998 1.06901 24.7168 0.421875 25.2006L2.06756 27.4017C2.73109 26.9056 3.55843 26.278 4.5204 25.5482C8.24626 22.7219 13.9917 18.3635 20.0612 14.1796C19.0764 16.6763 18.5354 19.3967 18.5354 22.2433C18.5354 25.0843 19.0742 27.7994 20.0553 30.292C18.2052 29.0775 16.4339 27.8905 14.8168 26.8068L14.8149 26.8055L14.814 26.8049C14.0114 26.267 13.2468 25.7546 12.5294 25.2769L11.0062 27.5645C11.712 28.0344 12.4684 28.5413 13.2656 29.0756C16.1107 30.9824 19.4745 33.2367 22.899 35.3922C26.9081 40.7567 33.3093 44.2294 40.5215 44.2294ZM32.9969 12.428C35.0819 10.8266 37.6891 9.87616 40.5215 9.87616C47.3519 9.87616 52.8887 15.4129 52.8887 22.2433C52.8887 23.882 52.5706 25.4429 51.9938 26.8706L54.542 27.9C55.2487 26.1507 55.6369 24.2407 55.6369 22.2433C55.6369 13.8951 48.8697 7.1279 40.5215 7.1279C37.0631 7.1279 33.8714 8.29092 31.3229 10.2485L32.9969 12.428ZM28.1543 22.2433C28.1543 19.8381 28.8394 17.5968 30.0244 15.7012L27.6941 14.2444C26.2435 16.5646 25.4061 19.3087 25.4061 22.2433C25.4061 30.5916 32.1733 37.3588 40.5215 37.3588C44.8052 37.3588 48.6734 35.5749 51.4225 32.7141L49.4409 30.8098C47.1882 33.1542 44.0264 34.6105 40.5215 34.6105C33.6911 34.6105 28.1543 29.0738 28.1543 22.2433ZM31.2212 20.0507V24.3231H34.3034L34.3645 25.1165H35.4021V23.4686H34.9443V20.0507H33.8457V23.4686H32.3198V20.0507H31.2212ZM38.2685 20.8441C38.5127 20.8441 38.6347 20.9662 38.6347 21.2103V23.1634C38.6347 23.4076 38.5127 23.5296 38.2685 23.5296H37.2309C36.9868 23.5296 36.8647 23.4076 36.8647 23.1634V21.2103C36.8647 20.9662 36.9868 20.8441 37.2309 20.8441H38.2685ZM39.4404 24.0973C39.6357 23.902 39.7333 23.5907 39.7333 23.1634V21.2103C39.7333 20.7831 39.6357 20.4739 39.4404 20.2826C39.2491 20.0873 38.9399 19.9897 38.5127 19.9897H36.9868C36.5596 19.9897 36.2483 20.0873 36.053 20.2826C35.8617 20.4739 35.7661 20.7831 35.7661 21.2103V23.1634C35.7661 23.5907 35.8617 23.902 36.053 24.0973C36.2483 24.2885 36.5596 24.3841 36.9868 24.3841H38.5127C38.9399 24.3841 39.2491 24.2885 39.4404 24.0973ZM44.042 20.0507H40.8377L40.6851 22.5531C40.677 22.6914 40.6424 22.8461 40.5813 23.017C40.5244 23.1838 40.4369 23.3343 40.3189 23.4686H39.9222V25.1165H40.9598L41.0208 24.3231H43.4011L43.4622 25.1165H44.4997V23.4686H44.042V20.0507ZM42.9434 20.9052V23.4686H41.387C41.444 23.3832 41.4948 23.2875 41.5396 23.1818C41.6494 22.9295 41.7105 22.6792 41.7227 22.431L41.8142 20.9052H42.9434ZM48.8043 20.0507H45.6L45.4474 22.5531C45.4393 22.6914 45.4047 22.8461 45.3437 23.017C45.2867 23.1838 45.1992 23.3343 45.0812 23.4686H44.6845V25.1165H45.7221L45.7831 24.3231H48.1635L48.2245 25.1165H49.2621V23.4686H48.8043V20.0507ZM47.7057 20.9052V23.4686H46.1493C46.2063 23.3832 46.2572 23.2875 46.3019 23.1818C46.4118 22.9295 46.4728 22.6792 46.485 22.431L46.5766 20.9052H47.7057Z" fill="#D3D3D3"/>
</svg>
