<svg width="97" height="54" viewBox="0 0 97 54" fill="none" xmlns="http://www.w3.org/2000/svg">
<path fill-rule="evenodd" clip-rule="evenodd" d="M48.5915 4.23135C35.8199 4.23135 25.4664 14.5848 25.4664 27.3565C25.4664 40.1281 35.8199 50.4816 48.5915 50.4816C56.3993 50.4816 63.3033 46.6122 67.4906 40.6863L67.4273 40.5891L67.6674 40.4325C70.2218 36.7132 71.7166 32.2094 71.7166 27.3565C71.7166 22.3733 70.1404 17.7582 67.4594 13.9826L67.4429 13.9722L67.4472 13.9654C63.2557 8.07414 56.3724 4.23135 48.5915 4.23135ZM48.5915 53.7852C57.3998 53.7852 65.2017 49.4761 70.0041 42.851C79.0738 36.8897 88.2248 29.9472 93.6567 25.8262L93.666 25.8192C94.8041 24.9558 95.7785 24.2165 96.5543 23.6365L94.5761 20.9906C93.7786 21.5869 92.7843 22.3412 91.6281 23.2182C87.2338 26.5517 80.502 31.6582 73.3588 36.5998C74.433 33.7227 75.0202 30.6082 75.0202 27.3565C75.0202 23.9375 74.371 20.6701 73.1891 17.6709C75.3288 19.0774 77.3773 20.4502 79.253 21.7073L79.2588 21.7112C80.2219 22.3566 81.1394 22.9715 82.0003 23.5447L83.8313 20.7949C82.9846 20.2312 82.0772 19.6231 81.121 18.9822L81.119 18.9809L81.1153 18.9785C77.756 16.7271 73.7955 14.0728 69.7547 11.5237C64.9342 5.09053 57.249 0.927765 48.5915 0.927765C40.0659 0.927765 32.4832 4.96468 27.6506 11.2313C18.3507 17.2931 8.86059 24.4929 3.28662 28.7217C2.14465 29.588 1.16706 30.3297 0.38916 30.9113L2.36738 33.5571C3.16499 32.9608 4.15951 32.2064 5.31585 31.3292C9.79458 27.9317 16.701 22.6927 23.997 17.6633C22.8131 20.6646 22.1628 23.9346 22.1628 27.3565C22.1628 30.7715 22.8105 34.0352 23.9898 37.0315C21.7659 35.5716 19.6366 34.1447 17.6928 32.842L17.6905 32.8405L17.6895 32.8398C16.7246 32.1932 15.8055 31.5772 14.9432 31.003L13.1123 33.7528C13.9606 34.3177 14.8699 34.9271 15.8281 35.5693C19.2482 37.8613 23.2916 40.5712 27.4081 43.1623C32.2274 49.6108 39.922 53.7852 48.5915 53.7852ZM39.5465 15.5578C42.0528 13.6328 45.1868 12.4903 48.5915 12.4903C56.8021 12.4903 63.4576 19.1459 63.4576 27.3565C63.4576 29.3262 63.0753 31.2026 62.382 32.9188L65.4451 34.1562C66.2945 32.0534 66.7612 29.7574 66.7612 27.3565C66.7612 17.3214 58.6266 9.18673 48.5915 9.18673C44.4343 9.18673 40.5977 10.5848 37.5341 12.9379L39.5465 15.5578ZM33.7253 27.3565C33.7253 24.4652 34.5488 21.7711 35.9733 19.4924L33.1721 17.7412C31.4285 20.5303 30.4218 23.8289 30.4218 27.3565C30.4218 37.3916 38.5564 45.5262 48.5915 45.5262C53.7407 45.5262 58.3907 43.3819 61.6953 39.943L59.3132 37.654C56.6053 40.472 52.8046 42.2226 48.5915 42.2226C40.3809 42.2226 33.7253 35.5671 33.7253 27.3565ZM37.412 24.7208V29.8565H41.117L41.1904 30.8102H42.4376V28.8293H41.8874V24.7208H40.5667V28.8293H38.7326V24.7208H37.412ZM45.8833 25.6745C46.1768 25.6745 46.3235 25.8213 46.3235 26.1147V28.4625C46.3235 28.756 46.1768 28.9027 45.8833 28.9027H44.636C44.3426 28.9027 44.1958 28.756 44.1958 28.4625V26.1147C44.1958 25.8213 44.3426 25.6745 44.636 25.6745H45.8833ZM47.2919 29.585C47.5267 29.3502 47.6441 28.9761 47.6441 28.4625V26.1147C47.6441 25.6012 47.5267 25.2295 47.2919 24.9996C47.062 24.7648 46.6903 24.6474 46.1768 24.6474H44.3426C43.829 24.6474 43.4548 24.7648 43.2201 24.9996C42.9902 25.2295 42.8752 25.6012 42.8752 26.1147V28.4625C42.8752 28.9761 42.9902 29.3502 43.2201 29.585C43.4548 29.8149 43.829 29.9298 44.3426 29.9298H46.1768C46.6903 29.9298 47.062 29.8149 47.2919 29.585ZM52.8234 24.7208H48.9716L48.7882 27.7288C48.7784 27.8951 48.7368 28.081 48.6634 28.2864C48.595 28.487 48.4898 28.6679 48.348 28.8293H47.8711V30.8102H49.1183L49.1917 29.8565H52.053L52.1264 30.8102H53.3736V28.8293H52.8234V24.7208ZM51.5028 25.7479V28.8293H49.6319C49.7004 28.7266 49.7615 28.6117 49.8153 28.4845C49.9474 28.1813 50.0207 27.8805 50.0354 27.5821L50.1455 25.7479H51.5028ZM58.548 24.7208H54.6962L54.5128 27.7288C54.503 27.8951 54.4615 28.081 54.3881 28.2864C54.3196 28.487 54.2144 28.6679 54.0726 28.8293H53.5957V30.8102H54.843L54.9163 29.8565H57.7776L57.851 30.8102H59.0983V28.8293H58.548V24.7208ZM57.2274 25.7479V28.8293H55.3565C55.425 28.7266 55.4861 28.6117 55.5399 28.4845C55.672 28.1813 55.7454 27.8805 55.76 27.5821L55.8701 25.7479H57.2274Z" fill="#57A51D"/>
</svg>
