<svg width="51" height="51" viewBox="0 0 51 51" fill="none" xmlns="http://www.w3.org/2000/svg">
<rect x="0.189941" y="0.5" width="50" height="50" rx="5" fill="white"/>
<path d="M30.1899 50.5H20.1899C20.1921 50.446 20.196 50.3921 20.196 50.3381C20.1963 43.785 20.1963 37.2319 20.1963 30.6789C20.1963 30.5554 20.1346 30.4937 20.0111 30.4937C13.458 30.4936 6.90494 30.4936 0.351868 30.4939C0.297892 30.4939 0.243917 30.4979 0.189941 30.5C0.189941 27.1667 0.189941 23.8333 0.189941 20.5C0.243916 20.5021 0.297891 20.5061 0.351867 20.5061C6.90494 20.5064 13.458 20.5064 20.0111 20.5064C20.1345 20.5064 20.1963 20.4446 20.1963 20.3211C20.1963 13.7681 20.1963 7.215 20.196 0.661926C20.196 0.607951 20.1921 0.553975 20.1899 0.5C23.5233 0.5 26.8566 0.5 30.1899 0.5C30.1878 0.553976 30.1839 0.607951 30.1839 0.661927C30.1836 7.215 30.1836 13.7681 30.1836 20.3211C30.1836 20.4446 30.2453 20.5063 30.3688 20.5064C36.9219 20.5064 43.4749 20.5064 50.028 20.5061C50.082 20.5061 50.136 20.5021 50.1899 20.5V30.5C50.136 30.4979 50.082 30.4939 50.028 30.4939C43.4749 30.4936 36.9219 30.4936 30.3688 30.4937C30.2453 30.4937 30.1836 30.5554 30.1836 30.6789C30.1836 37.2319 30.1836 43.785 30.1839 50.3381C30.1839 50.3921 30.1878 50.446 30.1899 50.5Z" fill="#DE2118"/>
<path d="M8.85083 9.21389C8.79881 8.18184 8.6795 7.15658 8.50304 6.13811C8.48765 6.0493 8.50538 6.04568 8.58502 6.05478C9.60783 6.17169 10.6313 6.1717 11.654 6.05485C11.7475 6.04417 11.7533 6.05952 11.7381 6.14652C11.5603 7.16068 11.4498 8.18271 11.3865 9.21023C11.3801 9.31542 11.4082 9.34581 11.5146 9.33918C12.5462 9.27494 13.5723 9.1642 14.5906 8.98563C14.6648 8.97261 14.6821 8.97657 14.6725 9.05872C14.5531 10.0897 14.5534 11.1212 14.6725 12.1522C14.6801 12.2185 14.6779 12.2391 14.6003 12.2252C13.8233 12.0862 13.0406 11.9903 12.2545 11.9217C12.0033 11.8998 11.7512 11.889 11.4998 11.8692C11.4163 11.8626 11.3799 11.8823 11.3858 11.9758C11.4423 12.871 11.5268 13.763 11.6699 14.6489C11.6936 14.7956 11.7141 14.943 11.7437 15.0885C11.7577 15.1577 11.7382 15.1635 11.6763 15.1563C10.8568 15.061 10.0352 15.0404 9.21214 15.0957C8.99784 15.1101 8.7838 15.131 8.57052 15.1563C8.49662 15.1651 8.48892 15.1504 8.50128 15.0803C8.68 14.0662 8.79006 13.0442 8.85554 12.0169C8.86338 11.8938 8.83389 11.862 8.70961 11.8699C7.68223 11.935 6.6603 12.0454 5.64626 12.224C5.57822 12.236 5.56043 12.2318 5.5693 12.156C5.66573 11.3325 5.68495 10.5067 5.62915 9.67949C5.61497 9.46933 5.59246 9.25965 5.56917 9.05026C5.56251 8.99035 5.56531 8.96922 5.63642 8.98196C6.31555 9.10368 6.99914 9.19427 7.68597 9.25843C8.0398 9.29149 8.39496 9.31013 8.74916 9.33968C8.85365 9.34841 8.8727 9.30076 8.85083 9.21389Z" fill="#DE2118"/>
<path d="M41.1872 12.0143C41.2383 13.0287 41.3579 14.0538 41.5339 15.0724C41.5462 15.1435 41.5479 15.1655 41.4625 15.1556C40.4315 15.0359 39.4 15.0358 38.369 15.1556C38.2834 15.1655 38.2852 15.1432 38.2976 15.0723C38.4748 14.058 38.5854 13.0361 38.6504 12.0087C38.658 11.8883 38.6224 11.8628 38.5082 11.87C37.4807 11.9342 36.4588 12.0446 35.4447 12.2234C35.3656 12.2373 35.3562 12.2249 35.365 12.1479C35.4836 11.1168 35.4841 10.0854 35.3641 9.05438C35.3559 8.98332 35.3659 8.97087 35.4388 8.98377C36.3261 9.14095 37.2201 9.24488 38.1185 9.31213C38.2628 9.32293 38.4075 9.32783 38.5517 9.33962C38.6267 9.34575 38.6567 9.32193 38.6514 9.24312C38.6114 8.64936 38.5672 8.05603 38.4943 7.4652C38.4386 7.01442 38.3742 6.56488 38.2931 6.11799C38.2797 6.04423 38.3056 6.04606 38.3629 6.05259C38.9675 6.12148 39.574 6.15167 40.1827 6.14049C40.6088 6.13266 41.0331 6.09931 41.4565 6.05424C41.5252 6.04692 41.5514 6.0428 41.5359 6.13025C41.3562 7.14413 41.2466 8.16618 41.1813 9.19357C41.1733 9.3197 41.2085 9.34594 41.3296 9.33823C42.3569 9.27284 43.3789 9.1628 44.3929 8.98369C44.466 8.97077 44.4756 8.98373 44.4673 9.0545C44.3582 9.98582 44.351 10.9187 44.4328 11.8525C44.4418 11.9553 44.452 12.0583 44.4683 12.1602C44.4786 12.225 44.4652 12.2377 44.3988 12.226C43.8945 12.1371 43.3878 12.0649 42.8791 12.0057C42.3493 11.9439 41.8176 11.9081 41.286 11.8684C41.1771 11.8603 41.1703 11.9159 41.1872 12.0143Z" fill="#DE2118"/>
<path d="M5.57332 41.9139C5.64211 41.2966 5.66683 40.7229 5.65778 40.1475C5.65101 39.7171 5.61778 39.2886 5.57124 38.8612C5.56219 38.7781 5.57096 38.7657 5.65632 38.7807C6.67049 38.9584 7.69249 39.069 8.71995 39.1332C8.82939 39.1401 8.86359 39.1159 8.85634 39.0004C8.7918 37.973 8.68198 36.9509 8.50338 35.9369C8.48559 35.8358 8.51308 35.8415 8.59291 35.8505C9.61167 35.9655 10.631 35.9654 11.6497 35.8505C11.7292 35.8416 11.7572 35.8353 11.7393 35.9368C11.5602 36.9507 11.4506 37.9728 11.3863 39.0003C11.3791 39.1153 11.4128 39.1401 11.5226 39.1333C12.55 39.0689 13.5721 38.9584 14.5862 38.7807C14.6712 38.7658 14.6807 38.7776 14.6712 38.8611C14.5537 39.8838 14.5538 40.9073 14.6704 41.9301C14.6807 42.0202 14.6707 42.0316 14.5802 42.0157C13.5661 41.8376 12.544 41.7278 11.5166 41.6632C11.3962 41.6557 11.3809 41.699 11.3873 41.8031C11.4506 42.8306 11.5619 43.8525 11.7395 44.8667C11.7519 44.9375 11.7539 44.96 11.6682 44.9501C10.6372 44.8303 9.60568 44.8302 8.57473 44.95C8.48958 44.9599 8.49066 44.9382 8.50313 44.8669C8.6804 43.8526 8.79103 42.8307 8.85597 41.8032C8.86356 41.6831 8.82837 41.6572 8.7139 41.6644C7.7031 41.7285 6.69664 41.831 5.69984 42.0122C5.53197 42.0427 5.55911 41.9671 5.57332 41.9139Z" fill="#DE2118"/>
<path d="M35.452 40.4004C35.4602 39.8827 35.4207 39.3675 35.3643 38.8536C35.3555 38.7728 35.3705 38.7667 35.446 38.78C36.4642 38.9587 37.4904 39.0694 38.522 39.1336C38.6276 39.1401 38.6571 39.1112 38.6505 39.0052C38.5864 37.9736 38.4756 36.9474 38.2969 35.9292C38.2838 35.8541 38.289 35.8382 38.3704 35.8476C39.4014 35.9668 40.4328 35.9666 41.4639 35.8476C41.5306 35.8399 41.5504 35.8428 41.5366 35.92C41.3784 36.8072 41.275 37.7013 41.2076 38.5996C41.1971 38.7398 41.1932 38.8805 41.1806 39.0205C41.173 39.1044 41.1942 39.1403 41.2874 39.1343C42.1825 39.077 43.0746 38.9934 43.9605 38.8498C44.1072 38.826 44.2546 38.8058 44.4001 38.7763C44.47 38.7622 44.4748 38.7831 44.4677 38.8442C44.3724 39.6636 44.352 40.4852 44.4071 41.3083C44.4212 41.5185 44.4421 41.7284 44.4652 41.9378C44.4723 42.0024 44.483 42.0355 44.3912 42.0192C43.3773 41.8393 42.3553 41.7295 41.3279 41.6644C41.2043 41.6566 41.1735 41.6872 41.1814 41.8109C41.2464 42.8383 41.3568 43.8602 41.5356 44.8742C41.5477 44.9431 41.5423 44.9594 41.4671 44.9506C40.5358 44.8411 39.603 44.834 38.6692 44.9155C38.591 44.9223 38.5107 44.9226 38.4355 44.9419C38.3064 44.9751 38.2787 44.9455 38.3038 44.8099C38.4426 44.058 38.53 43.299 38.5973 42.5377C38.6199 42.2825 38.631 42.0262 38.6508 41.7707C38.6569 41.6921 38.6369 41.6574 38.5501 41.663C37.8283 41.7094 37.1078 41.769 36.3914 41.8702C36.0727 41.9152 35.7545 41.9654 35.4373 42.0198C35.3608 42.033 35.3569 42.0144 35.3643 41.9471C35.4201 41.4331 35.4598 40.918 35.452 40.4004Z" fill="#DE2118"/>
</svg>
