<svg width="21" height="20" viewBox="0 0 21 20" fill="none" xmlns="http://www.w3.org/2000/svg">
<path fill-rule="evenodd" clip-rule="evenodd" d="M10.2695 0C4.74668 0 0.269531 4.47715 0.269531 10C0.269531 15.5228 4.74668 20 10.2695 20C15.7924 20 20.2695 15.5228 20.2695 10C20.2695 4.47715 15.7924 0 10.2695 0ZM10.1313 6.1949C9.56093 6.1949 9.04245 5.6937 9.04245 5.10609C9.04245 4.48392 9.56093 4 10.1485 4C10.7707 4 11.2546 4.48392 11.2546 5.10609C11.2546 5.6937 10.7707 6.1949 10.1313 6.1949ZM12.4126 15.4239H8.12646V14.9054C9.19799 14.7844 9.31897 14.698 9.31897 13.4536V9.94525C9.31897 8.82187 9.21528 8.75274 8.29929 8.61448V8.13057C9.28441 8.00959 10.3214 7.76763 11.2201 7.47382V13.4536C11.2201 14.6634 11.3065 14.7671 12.4126 14.9054V15.4239Z" fill="#57A51D"/>
</svg>
