<svg width="38" height="28" viewBox="0 0 38 28" fill="none" xmlns="http://www.w3.org/2000/svg">
<g opacity="0.6">
<path d="M6.19824 10.6046C6.19824 9.03679 6.19824 8.25287 6.56658 7.68531C6.74119 7.41625 6.97047 7.18697 7.23953 7.01236C7.80709 6.64402 8.59101 6.64402 10.1588 6.64402C11.7267 6.64402 12.5106 6.64402 13.0781 7.01236C13.3472 7.18697 13.5765 7.41625 13.7511 7.68531C14.1194 8.25287 14.1194 9.03679 14.1194 10.6046V11.8068C14.1194 13.3746 14.1194 14.1585 13.7511 14.7261C13.5765 14.9952 13.3472 15.2244 13.0781 15.3991C12.5106 15.7674 11.7267 15.7674 10.1588 15.7674C8.59101 15.7674 7.80709 15.7674 7.23953 15.3991C6.97047 15.2244 6.74119 14.9952 6.56658 14.7261C6.19824 14.1585 6.19824 13.3746 6.19824 11.8068V10.6046Z" fill="#E8EDEF"/>
<path d="M7.3415 20.3183C6.71009 20.3183 6.19824 20.8301 6.19824 21.4615C6.19824 22.0929 6.71009 22.6048 7.3415 22.6048H24.8216C25.453 22.6048 25.9648 22.0929 25.9648 21.4615C25.9648 20.8301 25.453 20.3183 24.8216 20.3183H7.3415Z" fill="#E8EDEF"/>
<path d="M16.8372 14.6241C16.8372 13.9927 17.349 13.4809 17.9804 13.4809H24.8215C25.4529 13.4809 25.9648 13.9927 25.9648 14.6241C25.9648 15.2555 25.4529 15.7674 24.8215 15.7674H17.9804C17.349 15.7674 16.8372 15.2555 16.8372 14.6241Z" fill="#E8EDEF"/>
<path d="M17.9804 6.64402C17.349 6.64402 16.8372 7.15587 16.8372 7.78727C16.8372 8.41868 17.349 8.93053 17.9804 8.93053H24.8215C25.4529 8.93053 25.9648 8.41868 25.9648 7.78727C25.9648 7.15587 25.4529 6.64402 24.8215 6.64402H17.9804Z" fill="#E8EDEF"/>
<path fill-rule="evenodd" clip-rule="evenodd" d="M24.4829 27.9641C23.8125 27.9732 23.0739 27.9732 22.2582 27.9732H9.43068C5.12116 27.9732 2.96641 27.9732 1.62761 26.6344C0.288818 25.2956 0.288818 23.1408 0.288818 18.8313V9.94474C0.288818 5.63523 0.288818 3.48048 1.62761 2.14168C2.96641 0.802887 5.12116 0.802887 9.43068 0.802887H22.2582C26.5678 0.802887 28.7225 0.802887 30.0613 2.14168C31.4001 3.48048 31.4001 5.63523 31.4001 9.94475V18.8313C31.4001 22.039 31.4001 24.0529 30.848 25.4251C31.8653 25.01 32.6514 24.1181 32.902 22.9933L35.6324 10.7369C35.982 9.16755 34.788 7.67828 33.1802 7.67828V5.39282C36.2506 5.39282 38.5308 8.23689 37.8632 11.2338L35.1328 23.4903C34.5504 26.1046 32.2311 27.9641 29.5527 27.9641H24.4829ZM9.43068 3.08835H22.2582C24.4776 3.08835 25.9122 3.09321 26.9693 3.23532C27.9606 3.3686 28.2713 3.58377 28.4452 3.75775C28.6192 3.93173 28.8344 4.24243 28.9677 5.23373C29.1098 6.29077 29.1146 7.72538 29.1146 9.94475V18.8313C29.1146 21.0507 29.1098 22.4853 28.9677 23.5423C28.8344 24.5336 28.6192 24.8443 28.4452 25.0183C28.2713 25.1923 27.9606 25.4074 26.9693 25.5407C26.3094 25.6294 25.5024 25.6647 24.4492 25.6786H23.4944V25.6861C23.1114 25.6875 22.7004 25.6877 22.2582 25.6877H9.43068C7.21131 25.6877 5.7767 25.6828 4.71966 25.5407C3.72836 25.4074 3.41766 25.1923 3.24368 25.0183C3.0697 24.8443 2.85453 24.5336 2.72125 23.5423C2.57914 22.4853 2.57428 21.0507 2.57428 18.8313V9.94474C2.57428 7.72538 2.57914 6.29077 2.72125 5.23373C2.85453 4.24243 3.0697 3.93173 3.24368 3.75775C3.41766 3.58377 3.72836 3.3686 4.71966 3.23532C5.7767 3.09321 7.21131 3.08835 9.43068 3.08835Z" fill="#E8EDEF"/>
</g>
</svg>
