<svg width="16" height="13" viewBox="0 0 16 13" fill="none" xmlns="http://www.w3.org/2000/svg">
<path fill-rule="evenodd" clip-rule="evenodd" d="M0.312195 3.2279C0.312195 1.61116 1.63121 0.300537 3.25829 0.300537H9.306C10.9331 0.300537 12.2521 1.61116 12.2521 3.2279V4.34822C12.2521 4.78915 11.8924 5.14659 11.4486 5.14659C11.0049 5.14659 10.6451 4.78915 10.6451 4.34822V3.2279C10.6451 2.49302 10.0456 1.89728 9.306 1.89728H3.25829C2.51871 1.89728 1.91916 2.49302 1.91916 3.2279V9.37318C1.91916 10.1081 2.51871 10.7038 3.25829 10.7038H6.28214C6.72589 10.7038 7.08562 11.0612 7.08562 11.5022C7.08562 11.9431 6.72589 12.3005 6.28214 12.3005H3.25829C1.63121 12.3005 0.312195 10.9899 0.312195 9.37318V3.2279Z" fill="white" fill-opacity="0.5"/>
<path fill-rule="evenodd" clip-rule="evenodd" d="M14.7048 5.2665C15.1337 5.68333 15.1529 6.3593 14.7478 6.77632L9.70228 11.9701C9.29717 12.3871 8.62112 12.3872 8.19228 11.9704C7.76344 11.5536 7.7442 10.8776 8.14932 10.4606L13.1948 5.26683C13.5999 4.84981 14.276 4.84966 14.7048 5.2665Z" fill="white" fill-opacity="0.5"/>
<path fill-rule="evenodd" clip-rule="evenodd" d="M3.10433 4.47171C3.10433 4.03079 3.46406 3.67334 3.90781 3.67334H8.65671C9.10046 3.67334 9.46019 4.03079 9.46019 4.47171C9.46019 4.91264 9.10046 5.27009 8.65671 5.27009H3.90781C3.46406 5.27009 3.10433 4.91264 3.10433 4.47171ZM3.10424 8.12973C3.10424 7.68881 3.46397 7.33136 3.90772 7.33136H6.27334C6.71709 7.33136 7.07683 7.68881 7.07683 8.12973C7.07683 8.57066 6.71709 8.92811 6.27334 8.92811H3.90772C3.46397 8.92811 3.10424 8.57066 3.10424 8.12973Z" fill="white" fill-opacity="0.5"/>
</svg>
