<svg width="51" height="51" viewBox="0 0 51 51" fill="none" xmlns="http://www.w3.org/2000/svg">
<rect x="0.189941" y="0.5" width="50" height="50" rx="5" fill="white"/>
<rect x="0.189941" y="0.5" width="50" height="50" rx="5" fill="#E30917"/>
<path d="M30.5854 17.0335C28.8564 15.8227 26.7529 15.11 24.4819 15.11C18.5968 15.11 13.826 19.8808 13.826 25.7658C13.826 31.6509 18.5968 36.4216 24.4819 36.4216C26.7529 36.4216 28.8563 35.7089 30.5854 34.4981C28.2052 37.1249 24.7668 38.7749 20.9428 38.7749C13.7581 38.7749 7.93372 32.9505 7.93372 25.7658C7.93372 18.5811 13.7581 12.7567 20.9428 12.7567C24.7668 12.7567 28.2052 14.4067 30.5854 17.0335Z" fill="white"/>
<path d="M41.6414 27.5147C41.8761 27.7864 42.1107 28.0581 42.3473 28.328C42.4231 28.4083 42.474 28.4628 42.4297 28.5516C42.3881 28.635 42.2853 28.6157 42.2293 28.6042C41.9504 28.5471 41.6728 28.4834 41.3952 28.4198L41.3203 28.4026C40.493 28.2131 38.6794 27.7884 38.6313 27.775C38.3958 27.7691 38.3168 27.909 38.2352 28.0536C38.2242 28.0732 38.2131 28.0929 38.2015 28.1124C37.6609 29.021 37.1153 29.9267 36.5696 30.8323L36.3456 31.2042C36.3407 31.2122 36.3358 31.2207 36.3308 31.2293C36.2956 31.2897 36.2557 31.3581 36.2081 31.3481C36.1673 31.3395 36.1622 31.2302 36.1565 31.1687C36.1021 30.5703 36.0152 29.5444 35.9509 28.7858C35.9066 28.2635 35.8731 27.8679 35.8683 27.826C35.7887 27.1259 35.7844 27.1249 35.1087 26.9747L35.0768 26.9676C34.2167 26.7761 33.3588 26.575 32.5009 26.374C32.29 26.3246 32.0792 26.2752 31.8683 26.2259C31.8143 26.2133 31.7328 26.1952 31.7204 26.1274C31.7097 26.0688 31.7828 26.0387 31.8462 26.0126C31.8545 26.0092 31.8628 26.0058 31.8706 26.0024C32.9162 25.5526 33.9626 25.1047 35.009 24.6567L35.023 24.6507C35.5366 24.4309 35.5495 24.4253 35.5043 23.8982C35.444 23.1956 35.3778 22.4936 35.3115 21.7916C35.2689 21.34 35.2263 20.8885 35.1853 20.4368C35.1845 20.4278 35.1835 20.418 35.1824 20.4079C35.1745 20.3336 35.1643 20.2376 35.2168 20.2167C35.2722 20.1945 35.329 20.2634 35.3778 20.3225C35.3862 20.3326 35.3943 20.3424 35.4021 20.3515L35.4326 20.3866C36.1552 21.2204 36.8778 22.0541 37.6024 22.8862C38.0423 23.3912 38.0475 23.3889 38.6566 23.1202L38.6929 23.1042C39.2937 22.8394 39.8975 22.5814 40.5013 22.3234C40.887 22.1586 41.2727 21.9938 41.6576 21.8272C41.7373 21.7928 41.8308 21.7473 41.8901 21.7992C41.961 21.8612 41.9004 21.9583 41.8559 22.0297C41.85 22.039 41.8444 22.0479 41.8395 22.0563L41.6742 22.3345C41.1367 23.2395 40.5991 24.1446 40.0429 25.0381C39.8586 25.3341 39.872 25.5254 40.118 25.7911C40.6388 26.3537 41.1401 26.9342 41.6414 27.5147Z" fill="white"/>
</svg>
