<svg width="51" height="51" viewBox="0 0 51 51" fill="none" xmlns="http://www.w3.org/2000/svg">
<rect x="0.189941" y="0.5" width="50" height="50" rx="5" fill="white"/>
<rect x="0.189941" y="0.5" width="50" height="50" rx="5" fill="white"/>
<mask id="mask0_239_606" style="mask-type:alpha" maskUnits="userSpaceOnUse" x="0" y="0" width="51" height="51">
<rect x="0.189941" y="0.5" width="50" height="50" rx="5" fill="white"/>
</mask>
<g mask="url(#mask0_239_606)">
<path d="M30.3344 10.2205C30.3344 13.4115 30.3344 16.6026 30.3345 19.7937C30.3345 20.1722 30.5298 20.3616 30.9204 20.362C37.3316 20.3623 43.7428 20.3657 50.154 20.3542C50.5219 20.3535 50.6129 20.4546 50.6113 20.8147C50.5972 23.9594 50.599 27.1042 50.6098 30.2489C50.6108 30.5506 50.5396 30.6336 50.2269 30.6331C43.7693 30.6225 37.3116 30.6247 30.854 30.6248C30.3321 30.6248 30.3343 30.6264 30.3344 31.1508C30.3348 37.6028 30.3328 44.0547 30.3402 50.5067C30.3405 50.8133 30.2725 50.9194 29.9386 50.9179C26.7911 50.9038 23.6435 50.9021 20.4961 50.9191C20.1294 50.9211 20.058 50.8119 20.0585 50.473C20.0676 44.0211 20.0619 37.5691 20.0734 31.1172C20.0741 30.731 19.9576 30.618 19.5801 30.6185C13.1341 30.6267 6.68806 30.62 0.242065 30.6332C-0.143928 30.634 -0.228527 30.5394 -0.226402 30.16C-0.208921 27.0385 -0.210029 23.9169 -0.2254 20.7955C-0.227139 20.4421 -0.13865 20.3534 0.212922 20.354C6.62412 20.3648 13.0353 20.3619 19.4466 20.3618C19.8596 20.3618 20.0657 20.1601 20.0649 19.7567C20.0648 13.3512 20.0684 6.94564 20.0572 0.540136C20.0566 0.171612 20.1608 0.085943 20.5198 0.0875564C23.6673 0.101705 26.8148 0.100679 29.9623 0.0865641C30.2797 0.0851408 30.3412 0.176956 30.3403 0.472947C30.3301 3.7221 30.3339 6.97129 30.3344 10.2205Z" fill="#CC0033"/>
<path d="M1.97733 50.9087C1.31555 50.9087 0.653757 50.9099 -0.00801197 50.9067C-0.0708942 50.9064 -0.153417 50.9419 -0.19521 50.8647C-0.224402 50.8109 -0.203534 50.7657 -0.15173 50.7186C1.04197 49.6338 2.14797 48.4598 3.29173 47.3244C6.26907 44.3687 9.23396 41.4006 12.2009 38.4345C13.6267 37.0089 15.0462 35.5769 16.4674 34.1467C16.5147 34.0991 16.5427 34.0099 16.624 34.036C16.7247 34.0683 16.6935 34.1619 16.693 34.243C16.6863 35.5187 16.6788 36.7943 16.6823 38.07C16.6828 38.2339 16.6424 38.3389 16.5222 38.4586C14.4968 40.475 12.4815 42.5014 10.4592 44.5208C8.40491 46.5722 6.33748 48.6107 4.30149 50.68C4.11649 50.868 3.96989 50.91 3.75371 50.9096C3.16159 50.9084 2.56946 50.9092 1.97733 50.9087Z" fill="#CC0033"/>
<path d="M33.723 14.8026C33.723 14.234 33.7486 13.6638 33.713 13.0974C33.6932 12.7831 33.8114 12.5802 34.016 12.3764C37.7402 8.66654 41.462 4.95439 45.1821 1.24042C45.5314 0.891701 45.87 0.531871 46.2027 0.167358C46.2829 0.0795001 46.3668 0.0971986 46.4535 0.0970656C47.7543 0.0950768 49.0552 0.0949348 50.356 0.0980676C50.4298 0.0982459 50.533 0.0527281 50.5739 0.148415C50.6204 0.256854 50.499 0.268315 50.4468 0.320494C47.447 3.31911 44.4488 6.31923 41.4484 9.31722C39.0356 11.7281 36.6207 14.1371 34.2047 16.5448C34.0644 16.6847 33.9358 16.9849 33.7687 16.9116C33.5934 16.8347 33.7368 16.5348 33.7293 16.3341C33.7101 15.8243 33.7229 15.3132 33.723 14.8026Z" fill="#CC0033"/>
<path d="M-0.217078 2.28076C-0.217078 1.61949 -0.218102 0.958216 -0.215423 0.296956C-0.215168 0.233991 -0.246934 0.149372 -0.162116 0.114969C-0.095638 0.0880045 -0.073431 0.15009 -0.0324533 0.191532C1.02913 1.26518 2.09288 2.33671 3.1598 3.40507C5.63633 5.88492 8.11348 8.36415 10.5927 10.8413C12.5669 12.8137 14.5445 14.7827 16.5206 16.7532C16.5735 16.8059 16.6899 16.8244 16.6478 16.931C16.6082 17.0314 16.5103 16.9858 16.4329 16.9856C15.1789 16.9827 13.925 16.9787 12.6711 16.9792C12.4929 16.9793 12.3552 16.9547 12.2111 16.8098C10.4388 15.0273 8.65372 13.2576 6.87487 11.4817C4.86688 9.47696 2.86428 7.46687 0.853195 5.46528C0.527691 5.14131 0.237568 4.77811 -0.141494 4.51116C-0.257839 4.42922 -0.213508 4.32488 -0.214181 4.22975C-0.218771 3.58012 -0.216586 2.93043 -0.217078 2.28076Z" fill="#CC0033"/>
<path d="M50.5991 50.7737C50.599 50.821 50.5629 50.8239 50.5292 50.7907C48.742 49.026 46.9482 47.2637 45.1647 45.4909C42.6789 43.0201 40.201 40.5414 37.7201 38.0658C36.4471 36.7956 35.1745 35.5252 33.9038 34.2527C33.8462 34.1949 33.7066 34.1677 33.7733 34.0452C33.8193 33.9605 33.9201 34.0057 33.9978 34.0057C35.2405 34.0064 36.4832 34.0099 37.7259 34.0069C37.9189 34.0064 38.0608 34.0456 38.2122 34.1978C40.6928 36.6914 43.1843 39.1742 45.6727 41.6602C47.2553 43.2411 48.8357 44.8241 50.4214 46.402C50.5109 46.4911 50.6084 46.5444 50.6074 46.7008C50.5994 48.0584 50.6016 49.4161 50.5991 50.7737Z" fill="#CC0033"/>
<path d="M33.7114 45.9481C33.7041 45.948 33.6981 45.9421 33.6981 45.9347C33.6981 44.3738 33.6982 42.8129 33.6975 41.252C33.6975 41.1937 33.6878 41.1319 33.7468 41.0969C33.8324 41.0462 33.8664 41.1217 33.914 41.1694C36.2526 43.5131 38.5922 45.8557 40.9307 48.1995C41.7454 49.0161 42.5577 49.8352 43.3703 50.6539C43.4295 50.7135 43.5613 50.7439 43.4971 50.8634C43.4524 50.9464 43.3505 50.9111 43.2727 50.9112C40.1842 50.9117 37.0957 50.907 34.0073 50.9172C33.7205 50.9182 33.7222 50.7809 33.7227 50.5767C33.7266 49.0383 33.7248 47.4999 33.7248 45.9614C33.7248 45.9541 33.7188 45.9481 33.7114 45.9481Z" fill="#003466"/>
<path d="M-0.170459 7.182C-0.135867 7.15963 -0.0903069 7.16472 -0.0615173 7.19418C0.572362 7.84286 1.2011 8.49666 1.84201 9.13833C4.37812 11.6775 6.91826 14.2126 9.45737 16.7487C9.51186 16.8031 9.62045 16.8293 9.58776 16.9303C9.5551 17.0313 9.45726 16.9972 9.37802 16.9971C6.32403 16.9921 3.27004 16.9828 0.216082 16.9908C-0.117597 16.9916 -0.232175 16.9342 -0.229949 16.5625C-0.211811 13.5344 -0.220313 10.5061 -0.21999 7.47786C-0.219982 7.40214 -0.214466 7.32642 -0.210196 7.25069C-0.208621 7.22277 -0.193944 7.19718 -0.170459 7.182Z" fill="#003466"/>
<path d="M50.5597 7.18571C50.5868 7.19819 50.6042 7.22531 50.6042 7.25515C50.6042 7.34046 50.6042 7.42576 50.6042 7.51106C50.6044 10.5389 50.5992 13.5668 50.6124 16.5946C50.6138 16.921 50.5191 16.991 50.2057 16.9903C47.1406 16.9833 44.0754 16.9931 41.0103 16.9991C40.9417 16.9993 40.8637 17.0249 40.8231 16.95C40.7654 16.8435 40.8715 16.8181 40.9252 16.7645C43.9394 13.7554 46.953 10.7458 49.9656 7.73513C50.1389 7.56196 50.3042 7.38082 50.4724 7.20259C50.4949 7.17879 50.53 7.17204 50.5597 7.18571Z" fill="#003466"/>
<path d="M16.6913 45.9853C16.687 45.9853 16.6836 45.9888 16.6836 45.993C16.6836 47.5214 16.6787 49.0498 16.6886 50.5781C16.6902 50.8242 16.6464 50.9186 16.368 50.9176C13.3034 50.9066 10.2388 50.9111 7.17419 50.9092C7.07647 50.9091 6.94249 50.9659 6.89284 50.8443C6.84705 50.7322 6.9868 50.7029 7.04734 50.6422C9.60711 48.0767 12.1686 45.513 14.7295 42.9487C15.309 42.3684 15.8874 41.7872 16.465 41.2051C16.519 41.1506 16.5476 41.0475 16.6523 41.1024C16.728 41.1421 16.6999 41.221 16.6998 41.2894C16.6986 42.8521 16.6989 44.4149 16.6989 45.9777C16.6989 45.9819 16.6955 45.9853 16.6913 45.9853Z" fill="#003466"/>
<path d="M-0.219664 38.9161C-0.219664 37.4192 -0.208848 35.9221 -0.228068 34.4255C-0.232315 34.0948 -0.156975 33.998 0.185864 33.9998C3.10096 34.0144 6.01616 34.0063 8.93131 34.0137C9.14451 34.0143 9.48207 33.8905 9.54529 34.0512C9.62743 34.2601 9.29783 34.3876 9.14498 34.5409C6.90251 36.7892 4.65034 39.0279 2.40122 41.2696C1.61625 42.052 0.834615 42.8377 0.0470012 43.6174C-0.0177774 43.6816 -0.0478517 43.846 -0.181736 43.7719C-0.26641 43.7249 -0.219394 43.6005 -0.219496 43.5112C-0.221243 41.9795 -0.220751 40.4478 -0.219664 38.9161Z" fill="#003466"/>
<path d="M33.7168 5.00229C33.7215 5.00229 33.7253 4.99848 33.7253 4.99378C33.7253 3.47754 33.7331 1.96123 33.7185 0.445128C33.7157 0.148715 33.8081 0.0849501 34.0917 0.0859174C37.1325 0.0962902 40.1734 0.091835 43.2143 0.0941218C43.3121 0.0941956 43.4511 0.03328 43.4996 0.144748C43.5523 0.265808 43.3974 0.307984 43.3305 0.375035C41.0899 2.62188 38.8453 4.86471 36.6023 7.10922C35.7135 7.9987 34.8271 8.89068 33.9401 9.782C33.8874 9.8349 33.8633 9.94479 33.7554 9.88515C33.6816 9.84432 33.7072 9.76652 33.7072 9.69768C33.7086 8.13539 33.7083 6.5731 33.7083 5.01081C33.7083 5.00611 33.7121 5.0023 33.7168 5.00229Z" fill="#003466"/>
<path d="M50.603 43.3716C50.6028 43.6081 50.3707 43.6644 50.2036 43.4971C48.5411 41.832 46.8988 40.1859 45.2548 38.5417C43.8184 37.1051 42.3795 35.671 40.9419 34.2357C40.8888 34.1826 40.7798 34.1595 40.8188 34.0533C40.8491 33.9707 40.9297 33.9936 40.9986 33.9937C44.053 33.999 47.1074 34.0104 50.1618 33.9986C50.5335 33.9972 50.6136 34.104 50.6119 34.4594C50.5978 37.4301 50.605 40.4009 50.603 43.3716Z" fill="#003466"/>
<path d="M6.87004 0.14014C6.88909 0.110785 6.92171 0.0930699 6.9567 0.0930704C7.12149 0.0930724 7.28627 0.0930817 7.45106 0.0930679C10.4218 0.0928214 13.3926 0.0967551 16.3634 0.0852764C16.6341 0.0842298 16.6859 0.162663 16.6852 0.414965C16.6768 3.39467 16.6825 6.37441 16.6737 9.35411C16.6732 9.53005 16.815 9.79751 16.6427 9.86584C16.4597 9.93843 16.3615 9.65464 16.2309 9.52451C13.2979 6.60265 10.3686 3.6772 7.4356 0.755368C7.26391 0.584326 7.07363 0.431906 6.88902 0.273807C6.84999 0.240382 6.84206 0.183243 6.87004 0.14014Z" fill="#003466"/>
</g>
</svg>
