<svg width="18" height="13" viewBox="0 0 18 13" fill="none" xmlns="http://www.w3.org/2000/svg">
<path opacity="0.5" fill-rule="evenodd" clip-rule="evenodd" d="M9.1878 6.03322C10.2797 6.03322 11.1648 5.15865 11.1648 4.07982C11.1648 3.00098 10.2797 2.12641 9.1878 2.12641C8.09592 2.12641 7.21078 3.00098 7.21078 4.07982C7.21078 5.15865 8.09592 6.03322 9.1878 6.03322ZM9.1878 7.85904C11.3002 7.85904 13.0127 6.16702 13.0127 4.07982C13.0127 1.99261 11.3002 0.300598 9.1878 0.300598C7.07537 0.300598 5.36291 1.99261 5.36291 4.07982C5.36291 6.16702 7.07537 7.85904 9.1878 7.85904ZM12.3436 7.33644C12.6689 7.87758 12.8557 8.50954 12.8557 9.18461C12.8557 9.69501 12.7516 9.89827 12.7113 9.9608C12.68 10.0094 12.615 10.09 12.3894 10.181C11.7932 10.4216 10.8115 10.4748 9.1878 10.4748C7.56412 10.4748 6.58235 10.4216 5.98619 10.181C5.76056 10.09 5.69564 10.0094 5.66431 9.9608C5.62402 9.89827 5.51991 9.69501 5.51991 9.18461C5.51991 8.50954 5.70672 7.87757 6.03204 7.33643C5.56261 6.86962 5.19855 6.29924 4.97807 5.66303C4.16337 6.61285 3.67203 7.84204 3.67203 9.18461C3.67203 12.1945 6.14153 12.3006 9.1878 12.3006C12.2341 12.3006 14.7036 12.1945 14.7036 9.18461C14.7036 7.84204 14.2122 6.61286 13.3975 5.66303C13.177 6.29924 12.813 6.86963 12.3436 7.33644ZM3.23978 7.46997C3.4139 7.01008 3.65238 6.55565 3.94938 6.12795C3.47356 5.84486 3.1553 5.32952 3.1553 4.74074C3.1553 3.8704 3.85073 3.16055 4.7225 3.12408C4.8691 2.58764 5.13224 2.09847 5.48342 1.68473C5.26116 1.63592 5.03011 1.61018 4.79298 1.61018C3.04312 1.61018 1.62459 3.01178 1.62459 4.74074C1.62459 5.03079 1.66451 5.31163 1.73923 5.57819C1.07538 6.36198 0.675781 7.37174 0.675781 8.47372C0.675781 10.2971 1.7698 10.834 3.34464 10.9909C3.08103 10.5902 2.92569 10.07 2.90267 9.39487C2.78741 9.36784 2.68455 9.33616 2.59274 9.29911C2.40583 9.22369 2.35206 9.15697 2.3261 9.11669C2.29273 9.06489 2.20649 8.89652 2.20649 8.47372C2.20649 7.9375 2.34877 7.43412 2.59807 6.99842C2.79032 7.18094 3.00584 7.33971 3.23978 7.46997ZM14.4022 6.12795C14.6992 6.55565 14.9377 7.01008 15.1118 7.46997C15.3457 7.33971 15.5612 7.18094 15.7535 6.99842C16.0028 7.43412 16.1451 7.9375 16.1451 8.47372C16.1451 8.89652 16.0588 9.06489 16.0255 9.11669C15.9995 9.15697 15.9457 9.22369 15.7588 9.29911C15.667 9.33616 15.5642 9.36784 15.4489 9.39487C15.4259 10.07 15.2705 10.5902 15.0069 10.9909C16.5818 10.834 17.6758 10.2971 17.6758 8.47372C17.6758 7.37174 17.2762 6.36198 16.6123 5.57819C16.687 5.31163 16.727 5.03079 16.727 4.74074C16.727 3.01178 15.3084 1.61018 13.5586 1.61018C13.3215 1.61018 13.0904 1.63592 12.8681 1.68473C13.2193 2.09847 13.4825 2.58764 13.6291 3.12408C14.5008 3.16055 15.1963 3.8704 15.1963 4.74074C15.1963 5.32952 14.878 5.84486 14.4022 6.12795Z" fill="white"/>
</svg>
